<svg xmlns="http://www.w3.org/2000/svg" width="104" height="104" viewBox="0 0 104 104" role="img" aria-label="cursor-cross">
  <defs>
    <linearGradient id="gBody" x1="0" y1="0" x2="0" y2="1">
      <stop offset="0%" stop-color="#FFFFFF"/>
      <stop offset="100%" stop-color="#E9EEF5"/>
    </linearGradient>
    <filter id="shadow" x="-20%" y="-20%" width="140%" height="140%">
      <feDropShadow dx="0" dy="1.2" stdDeviation="1.1" flood-color="#0F1C2B" flood-opacity="0.18"/>
    </filter>
  </defs>
  <g filter="url(#shadow)">
    <path d="M46 12 C46 9.2 48.2 7 51 7 H53 C55.8 7 58 9.2 58 12 V46 H92 C94.8 46 97 48.2 97 51 V53 C97 55.8 94.8 58 92 58 H58 V92 C58 94.8 55.8 97 53 97 H51 C48.2 97 46 94.8 46 92 V58 H12 C9.2 58 7 55.8 7 53 V51 C7 48.2 9.2 46 12 46 H46 Z" fill="url(#gBody)" stroke="#172638" stroke-width="5" stroke-linejoin="round"/>
    <rect x="47" y="10" width="10" height="14" rx="2.5" fill="var(--tip-color, #2F7DFF)"/>
    <rect x="47" y="80" width="10" height="14" rx="2.5" fill="var(--tip-color, #2F7DFF)"/>
    <rect x="10" y="47" width="14" height="10" rx="2.5" fill="var(--tip-color, #2F7DFF)"/>
    <rect x="80" y="47" width="14" height="10" rx="2.5" fill="var(--tip-color, #2F7DFF)"/>
  </g>
</svg>
