<svg xmlns="http://www.w3.org/2000/svg" width="116" height="80" viewBox="0 0 116 80" role="img" aria-label="cursor-slider">
  <defs>
    <linearGradient id="gBody" x1="0" y1="0" x2="0" y2="1">
      <stop offset="0%" stop-color="#FFFFFF"/>
      <stop offset="100%" stop-color="#E9EEF5"/>
    </linearGradient>
    <filter id="shadow" x="-20%" y="-20%" width="140%" height="140%">
      <feDropShadow dx="0" dy="1.2" stdDeviation="1.1" flood-color="#0F1C2B" flood-opacity="0.18"/>
    </filter>
  </defs>
  <g filter="url(#shadow)">
    <path d="M36 35 H80 C82.8 35 85 37.2 85 40 C85 42.8 82.8 45 80 45 H36 C33.2 45 31 42.8 31 40 C31 37.2 33.2 35 36 35 Z"
          fill="url(#gBody)" stroke="#172638" stroke-width="5" stroke-linejoin="round"/>
    <path d="M14 40 L29 28.5 C31.2 26.8 34.5 28.4 34.5 31.2 V48.8 C34.5 51.6 31.2 53.2 29 51.5 Z"
          fill="var(--tip-color, #2F7DFF)" stroke="#172638" stroke-width="4" stroke-linejoin="round"/>
    <path d="M102 40 L87 28.5 C84.8 26.8 81.5 28.4 81.5 31.2 V48.8 C81.5 51.6 84.8 53.2 87 51.5 Z"
          fill="var(--tip-color, #2F7DFF)" stroke="#172638" stroke-width="4" stroke-linejoin="round"/>
  </g>
</svg>
